<svg version="1.1" id="Layer_1" xmlns="http://www.w3.org/2000/svg" xmlns:xlink="http://www.w3.org/1999/xlink" x="0px" y="0px"
	 width="100%" viewBox="0 0 1024 1024" enable-background="new 0 0 1024 1024" xml:space="preserve">
<path fill="#F8F9FA" opacity="1.000000" stroke="none" 
	d="
M568.000000,1025.000000 
	C378.666656,1025.000000 189.833328,1025.000000 1.000000,1025.000000 
	C1.000000,683.666687 1.000000,342.333344 1.000000,1.000000 
	C342.333344,1.000000 683.666687,1.000000 1025.000000,1.000000 
	C1025.000000,342.333344 1025.000000,683.666687 1025.000000,1025.000000 
	C872.833313,1025.000000 720.666687,1025.000000 568.000000,1025.000000 
M721.182312,160.315079 
	C686.785095,140.195084 650.313110,125.118591 611.624023,115.530594 
	C602.811768,113.346733 593.911621,110.784531 584.932373,110.183769 
	C572.311768,109.339386 562.755310,119.196594 561.506531,132.482574 
	C560.356323,144.720200 568.783325,156.431595 580.465759,158.814194 
	C584.171448,159.569931 587.908264,160.188004 591.589233,161.047485 
	C674.133667,180.320587 742.208191,222.754791 795.262268,288.909821 
	C828.571594,330.444519 851.156921,377.349182 863.564697,429.103943 
	C866.231018,440.225708 868.124207,451.532867 870.417297,462.972870 
	C871.733154,463.035065 873.041687,463.156372 874.349609,463.149841 
	C897.469849,463.034637 920.589905,462.825562 943.710144,462.811279 
	C954.391785,462.804688 963.163879,459.296967 968.007690,449.359985 
	C972.224487,440.709442 971.877502,431.862152 966.321533,423.741150 
	C961.487976,416.676086 954.584290,413.062531 945.982300,413.015259 
	C934.041016,412.949585 922.099182,412.998749 910.475830,412.998749 
	C880.501038,303.737518 818.512878,219.231415 721.182312,160.315079 
M708.874390,815.398865 
	C678.473328,835.028992 645.943848,850.014343 611.043762,859.628601 
	C600.977478,862.401672 590.502441,863.695618 580.444458,866.493225 
	C567.687134,870.041565 560.756592,883.774841 564.174988,897.252197 
	C567.265015,909.434814 580.575195,917.377869 593.479980,914.566833 
	C601.599243,912.798279 609.726196,910.999756 617.734131,908.795166 
	C686.126465,889.966309 746.390198,856.685608 797.462769,807.217468 
	C845.585327,760.606628 880.409119,705.574707 901.557434,641.969788 
	C904.739014,632.401001 907.454651,622.677307 910.393433,613.000183 
	C922.022278,613.000183 933.342224,613.149597 944.656311,612.955994 
	C954.924438,612.780396 962.505066,607.799011 966.863708,598.603760 
	C973.806091,583.957947 965.509888,563.193359 942.421387,563.220032 
	C919.775879,563.246216 897.130066,563.076660 874.484436,563.009827 
	C873.034668,563.005554 871.584595,563.146118 870.335876,563.209229 
	C852.679993,670.431213 799.645081,754.581543 708.874390,815.398865 
M205.342178,701.131165 
	C179.428192,658.554993 162.896317,612.574463 155.800461,563.342163 
	C154.873825,563.180908 154.392731,563.022827 153.912064,563.024170 
	C129.932205,563.089905 105.951675,563.081116 81.972740,563.271484 
	C57.138401,563.468628 50.730053,587.389099 59.328171,601.327881 
	C64.878891,610.326355 73.312027,613.401917 83.612427,613.072998 
	C94.236862,612.733765 104.880562,612.997620 115.554855,612.997620 
	C116.098732,614.876587 116.583488,616.447449 117.008331,618.034241 
	C128.992126,662.794739 147.797928,704.454773 173.960648,742.721802 
	C211.481873,797.602356 259.334137,841.138062 317.763580,872.928528 
	C351.278625,891.163513 386.741547,904.309265 423.925385,912.791443 
	C428.580109,913.853333 433.394257,914.937195 438.113831,914.852722 
	C450.116882,914.638000 459.744629,904.360107 460.559906,891.648621 
	C461.329193,879.653564 452.629883,868.460205 441.982635,865.875854 
	C424.410645,861.610840 406.581268,857.752502 389.672852,851.518921 
	C311.367920,822.650696 250.085724,772.505615 205.342178,701.131165 
M204.253433,243.753571 
	C161.380920,293.092926 131.935913,349.496490 115.744507,412.595123 
	C115.065979,412.775421 114.748695,412.932678 114.430977,412.933563 
	C103.267799,412.964294 92.092133,412.682434 80.947624,413.148132 
	C76.613991,413.329193 71.810349,414.283173 68.154640,416.456146 
	C56.284615,423.511658 54.160480,433.317413 56.617229,444.704254 
	C59.022110,455.850739 68.814110,462.498108 81.661850,462.777557 
	C91.447014,462.990387 101.235504,463.099426 111.023018,463.143707 
	C124.352745,463.204041 137.682953,463.158783 151.012955,463.158783 
	C152.601486,463.158783 154.190033,463.158783 155.660202,463.158783 
	C161.976761,419.415680 176.939316,374.815033 196.464539,339.928131 
	C233.570404,273.628815 285.843597,223.173889 353.923676,189.389587 
	C381.582703,175.663956 410.537476,165.401550 441.048737,159.912811 
	C452.788544,157.800888 461.480347,146.190918 460.548737,133.979584 
	C459.519806,120.492714 449.927856,110.631500 437.051788,111.133415 
	C430.216309,111.399857 423.398987,113.413849 416.674530,115.053329 
	C332.595703,135.552307 262.215179,178.742828 204.253433,243.753571 
M350.576508,805.941467 
	C372.917786,818.336731 396.266998,828.326782 420.931458,835.083435 
	C425.835876,836.426941 430.941284,837.839233 435.951965,837.831970 
	C447.770782,837.814758 457.366669,827.828430 458.501099,815.321472 
	C459.587097,803.348022 451.563812,791.606201 440.619507,789.102112 
	C436.174774,788.085144 431.641693,787.312561 427.327515,785.887695 
	C350.378235,760.473022 293.205261,711.858093 256.476685,639.539795 
	C247.498123,621.861084 240.113098,603.429504 236.211075,583.915710 
	C233.351120,569.613342 220.314255,560.829285 205.147888,564.073975 
	C192.766006,566.722839 184.033234,581.299255 187.533051,594.037354 
	C195.178909,621.865723 205.186661,648.772522 219.241928,674.082214 
	C250.424667,730.233765 294.007721,774.038635 350.576508,805.941467 
M243.782349,416.306122 
	C261.132996,368.072357 289.488403,327.399078 328.572601,294.369904 
	C361.182465,266.812012 398.038574,247.148956 439.703430,236.928314 
	C449.996246,234.403412 457.160645,224.999069 457.579132,213.789719 
	C457.997009,202.595337 451.130615,192.774933 440.797058,189.201614 
	C432.186584,186.224136 424.512482,189.529099 416.570953,191.975037 
	C367.778503,207.002777 324.263397,231.384842 286.704620,265.970184 
	C240.857300,308.187866 208.915649,359.250702 191.297852,419.108948 
	C189.348450,425.732208 187.500504,432.612427 187.200760,439.443420 
	C186.692093,451.035522 196.394974,461.071381 208.007523,462.377350 
	C221.343597,463.877136 232.767853,456.589691 235.820038,444.853455 
	C238.241165,435.543793 240.914139,426.299622 243.782349,416.306122 
M772.894470,301.619019 
	C727.506104,246.168655 669.657715,209.716949 601.401184,189.124634 
	C587.550415,184.945999 573.554932,192.618484 569.733459,206.538208 
	C566.015686,220.080063 574.179504,233.435562 587.979492,237.239136 
	C597.418396,239.840683 606.861572,242.657715 615.947571,246.271805 
	C692.986023,276.915131 747.052917,330.955109 778.624512,407.440887 
	C783.936890,420.310699 787.258118,433.988220 792.063477,447.085571 
	C796.799011,459.992432 811.031311,465.956604 824.207825,461.197052 
	C836.450623,456.774811 843.124146,442.847168 838.904541,430.153687 
	C835.658081,420.387695 832.251282,410.672821 828.774353,400.985992 
	C815.837524,364.943939 797.324402,332.020569 772.894470,301.619019 
M623.317627,776.895447 
	C610.962219,781.037170 598.658264,785.341553 586.237061,789.275391 
	C573.476196,793.316772 565.998413,807.360168 569.966125,820.458313 
	C573.946716,833.599060 587.909912,841.619019 600.780396,836.970886 
	C620.605957,829.810913 640.721802,823.008240 659.619629,813.805664 
	C729.399109,779.825195 781.551208,727.663818 814.888245,657.498962 
	C824.406189,637.466309 831.298462,616.162292 838.962219,595.282532 
	C842.737915,584.995483 838.198486,573.538452 828.898560,567.291992 
	C820.388062,561.575745 807.124023,562.564941 799.099731,569.202637 
	C792.010681,575.066711 790.355835,583.505310 788.013123,591.593628 
	C773.806213,640.643311 748.125244,682.811096 711.731812,718.466614 
	C686.246643,743.434998 656.807190,762.572998 623.317627,776.895447 
z"/>
<path fill="#FFD701" opacity="1.000000" stroke="none" 
	d="
M721.485779,160.517914 
	C818.512878,219.231415 880.501038,303.737518 910.475830,412.998749 
	C922.099182,412.998749 934.041016,412.949585 945.982300,413.015259 
	C954.584290,413.062531 961.487976,416.676086 966.321533,423.741150 
	C971.877502,431.862152 972.224487,440.709442 968.007690,449.359985 
	C963.163879,459.296967 954.391785,462.804688 943.710144,462.811279 
	C920.589905,462.825562 897.469849,463.034637 874.349609,463.149841 
	C873.041687,463.156372 871.733154,463.035065 870.417297,462.972870 
	C868.124207,451.532867 866.231018,440.225708 863.564697,429.103943 
	C851.156921,377.349182 828.571594,330.444519 795.262268,288.909821 
	C742.208191,222.754791 674.133667,180.320587 591.589233,161.047485 
	C587.908264,160.188004 584.171448,159.569931 580.465759,158.814194 
	C568.783325,156.431595 560.356323,144.720200 561.506531,132.482574 
	C562.755310,119.196594 572.311768,109.339386 584.932373,110.183769 
	C593.911621,110.784531 602.811768,113.346733 611.624023,115.530594 
	C650.313110,125.118591 686.785095,140.195084 721.485779,160.517914 
z"/>
<path fill="#FFD701" opacity="1.000000" stroke="none" 
	d="
M709.181641,815.206177 
	C799.645081,754.581543 852.679993,670.431213 870.335876,563.209229 
	C871.584595,563.146118 873.034668,563.005554 874.484436,563.009827 
	C897.130066,563.076660 919.775879,563.246216 942.421387,563.220032 
	C965.509888,563.193359 973.806091,583.957947 966.863708,598.603760 
	C962.505066,607.799011 954.924438,612.780396 944.656311,612.955994 
	C933.342224,613.149597 922.022278,613.000183 910.393433,613.000183 
	C907.454651,622.677307 904.739014,632.401001 901.557434,641.969788 
	C880.409119,705.574707 845.585327,760.606628 797.462769,807.217468 
	C746.390198,856.685608 686.126465,889.966309 617.734131,908.795166 
	C609.726196,910.999756 601.599243,912.798279 593.479980,914.566833 
	C580.575195,917.377869 567.265015,909.434814 564.174988,897.252197 
	C560.756592,883.774841 567.687134,870.041565 580.444458,866.493225 
	C590.502441,863.695618 600.977478,862.401672 611.043762,859.628601 
	C645.943848,850.014343 678.473328,835.028992 709.181641,815.206177 
z"/>
<path fill="#FFD701" opacity="1.000000" stroke="none" 
	d="
M205.553314,701.428040 
	C250.085724,772.505615 311.367920,822.650696 389.672852,851.518921 
	C406.581268,857.752502 424.410645,861.610840 441.982635,865.875854 
	C452.629883,868.460205 461.329193,879.653564 460.559906,891.648621 
	C459.744629,904.360107 450.116882,914.638000 438.113831,914.852722 
	C433.394257,914.937195 428.580109,913.853333 423.925385,912.791443 
	C386.741547,904.309265 351.278625,891.163513 317.763580,872.928528 
	C259.334137,841.138062 211.481873,797.602356 173.960648,742.721802 
	C147.797928,704.454773 128.992126,662.794739 117.008331,618.034241 
	C116.583488,616.447449 116.098732,614.876587 115.554855,612.997620 
	C104.880562,612.997620 94.236862,612.733765 83.612427,613.072998 
	C73.312027,613.401917 64.878891,610.326355 59.328171,601.327881 
	C50.730053,587.389099 57.138401,563.468628 81.972740,563.271484 
	C105.951675,563.081116 129.932205,563.089905 153.912064,563.024170 
	C154.392731,563.022827 154.873825,563.180908 155.800461,563.342163 
	C162.896317,612.574463 179.428192,658.554993 205.553314,701.428040 
z"/>
<path fill="#FFD701" opacity="1.000000" stroke="none" 
	d="
M204.485458,243.486710 
	C262.215179,178.742828 332.595703,135.552307 416.674530,115.053329 
	C423.398987,113.413849 430.216309,111.399857 437.051788,111.133415 
	C449.927856,110.631500 459.519806,120.492714 460.548737,133.979584 
	C461.480347,146.190918 452.788544,157.800888 441.048737,159.912811 
	C410.537476,165.401550 381.582703,175.663956 353.923676,189.389587 
	C285.843597,223.173889 233.570404,273.628815 196.464539,339.928131 
	C176.939316,374.815033 161.976761,419.415680 155.660202,463.158783 
	C154.190033,463.158783 152.601486,463.158783 151.012955,463.158783 
	C137.682953,463.158783 124.352745,463.204041 111.023018,463.143707 
	C101.235504,463.099426 91.447014,462.990387 81.661850,462.777557 
	C68.814110,462.498108 59.022110,455.850739 56.617229,444.704254 
	C54.160480,433.317413 56.284615,423.511658 68.154640,416.456146 
	C71.810349,414.283173 76.613991,413.329193 80.947624,413.148132 
	C92.092133,412.682434 103.267799,412.964294 114.430977,412.933563 
	C114.748695,412.932678 115.065979,412.775421 115.744507,412.595123 
	C131.935913,349.496490 161.380920,293.092926 204.485458,243.486710 
z"/>
<path fill="#FFD701" opacity="1.000000" stroke="none" 
	d="
M350.252014,805.769104 
	C294.007721,774.038635 250.424667,730.233765 219.241928,674.082214 
	C205.186661,648.772522 195.178909,621.865723 187.533051,594.037354 
	C184.033234,581.299255 192.766006,566.722839 205.147888,564.073975 
	C220.314255,560.829285 233.351120,569.613342 236.211075,583.915710 
	C240.113098,603.429504 247.498123,621.861084 256.476685,639.539795 
	C293.205261,711.858093 350.378235,760.473022 427.327515,785.887695 
	C431.641693,787.312561 436.174774,788.085144 440.619507,789.102112 
	C451.563812,791.606201 459.587097,803.348022 458.501099,815.321472 
	C457.366669,827.828430 447.770782,837.814758 435.951965,837.831970 
	C430.941284,837.839233 425.835876,836.426941 420.931458,835.083435 
	C396.266998,828.326782 372.917786,818.336731 350.252014,805.769104 
z"/>
<path fill="#FFD701" opacity="1.000000" stroke="none" 
	d="
M243.628815,416.666260 
	C240.914139,426.299622 238.241165,435.543793 235.820038,444.853455 
	C232.767853,456.589691 221.343597,463.877136 208.007523,462.377350 
	C196.394974,461.071381 186.692093,451.035522 187.200760,439.443420 
	C187.500504,432.612427 189.348450,425.732208 191.297852,419.108948 
	C208.915649,359.250702 240.857300,308.187866 286.704620,265.970184 
	C324.263397,231.384842 367.778503,207.002777 416.570953,191.975037 
	C424.512482,189.529099 432.186584,186.224136 440.797058,189.201614 
	C451.130615,192.774933 457.997009,202.595337 457.579132,213.789719 
	C457.160645,224.999069 449.996246,234.403412 439.703430,236.928314 
	C398.038574,247.148956 361.182465,266.812012 328.572601,294.369904 
	C289.488403,327.399078 261.132996,368.072357 243.628815,416.666260 
z"/>
<path fill="#FFD701" opacity="1.000000" stroke="none" 
	d="
M773.108887,301.900787 
	C797.324402,332.020569 815.837524,364.943939 828.774353,400.985992 
	C832.251282,410.672821 835.658081,420.387695 838.904541,430.153687 
	C843.124146,442.847168 836.450623,456.774811 824.207825,461.197052 
	C811.031311,465.956604 796.799011,459.992432 792.063477,447.085571 
	C787.258118,433.988220 783.936890,420.310699 778.624512,407.440887 
	C747.052917,330.955109 692.986023,276.915131 615.947571,246.271805 
	C606.861572,242.657715 597.418396,239.840683 587.979492,237.239136 
	C574.179504,233.435562 566.015686,220.080063 569.733459,206.538208 
	C573.554932,192.618484 587.550415,184.945999 601.401184,189.124634 
	C669.657715,209.716949 727.506104,246.168655 773.108887,301.900787 
z"/>
<path fill="#FFD701" opacity="1.000000" stroke="none" 
	d="
M623.672485,776.750122 
	C656.807190,762.572998 686.246643,743.434998 711.731812,718.466614 
	C748.125244,682.811096 773.806213,640.643311 788.013123,591.593628 
	C790.355835,583.505310 792.010681,575.066711 799.099731,569.202637 
	C807.124023,562.564941 820.388062,561.575745 828.898560,567.291992 
	C838.198486,573.538452 842.737915,584.995483 838.962219,595.282532 
	C831.298462,616.162292 824.406189,637.466309 814.888245,657.498962 
	C781.551208,727.663818 729.399109,779.825195 659.619629,813.805664 
	C640.721802,823.008240 620.605957,829.810913 600.780396,836.970886 
	C587.909912,841.619019 573.946716,833.599060 569.966125,820.458313 
	C565.998413,807.360168 573.476196,793.316772 586.237061,789.275391 
	C598.658264,785.341553 610.962219,781.037170 623.672485,776.750122 
z"/>
</svg>